# xmcd
#
# Track frame offsets: 
#        150
#        20548
#        39873
#        61909
#        86051
#        104732
#        127998
#        147239
#        168149
#        184134
#        203281
#        226185
#
# Disc length: 3278 seconds
#
# Revision: 0
# Processed by: cddbd v1.5.2PL0 Copyright (c) Steve Scherf et al.
# Submitted via: ExactAudioCopyFreeDBPlugin 1.0
#
DISCID=930ccc0c
DTITLE=刘紫玲 - DTS51那一夜
DYEAR=2007
DGENRE=DTS
TTITLE0=老公老公我爱你
TTITLE1=隐形的翅膀
TTITLE2=英文版 - 那一夜
TTITLE3=红花雨
TTITLE4=长相依
TTITLE5=梅花三弄
TTITLE6=白月光
TTITLE7=网络情缘
TTITLE8=QQ爱
TTITLE9=宝贝
TTITLE10=狼爱上羊
TTITLE11=惠安之春
EXTD=
EXTT0=
EXTT1=
EXTT2=
EXTT3=
EXTT4=
EXTT5=
EXTT6=
EXTT7=
EXTT8=
EXTT9=
EXTT10=
EXTT11=
PLAYORDER=
